<?xml version="1.0" encoding="iso-8859-1"?>
<!-- Generator: Adobe Illustrator 19.0.0, SVG Export Plug-In . SVG Version: 6.00 Build 0)  -->
<svg xmlns="http://www.w3.org/2000/svg" xmlns:xlink="http://www.w3.org/1999/xlink" version="1.1" id="Capa_1" x="0px" y="0px" viewBox="0 0 480.04 480.04" style="enable-background:new 0 0 480.04 480.04;" xml:space="preserve" width="512px" height="512px">
<g>
	<g>
		<path d="M432,358.948v-6.928h24c4.418,0,8-3.582,8-8v-48c-0.026-22.08-17.92-39.974-40-40h-4.448    c2.879-4.843,4.415-10.366,4.448-16v-8c0-17.673-14.327-32-32-32c-17.673,0-32,14.327-32,32v8c0.033,5.634,1.569,11.157,4.448,16    H360c-8.075-0.003-15.958,2.456-22.6,7.048l-20.8-15.616c7.233-8.894,11.25-19.969,11.4-31.432c0-24.336-18.648-46.256-48-57.072    v-6.928h24c4.418,0,8-3.582,8-8v-48c-0.026-22.08-17.92-39.974-40-40h-4.448c2.879-4.843,4.415-10.366,4.448-16v-8    c0-17.673-14.327-32-32-32c-17.673,0-32,14.327-32,32v8c0.033,5.634,1.569,11.157,4.448,16H208c-22.08,0.026-39.974,17.92-40,40    v48c0,4.418,3.582,8,8,8h24v6.92c-29.352,10.824-48,32.752-48,57.08c0.159,11.466,4.188,22.543,11.432,31.432l-20.8,15.616    c-6.651-4.599-14.546-7.057-22.632-7.048h-4.448c2.879-4.843,4.415-10.366,4.448-16v-8c0-17.673-14.327-32-32-32s-32,14.327-32,32    v8c0.033,5.634,1.569,11.157,4.448,16H56c-22.08,0.026-39.974,17.92-40,40v48c0,4.418,3.582,8,8,8h24v6.92    c-29.352,10.824-48,32.752-48,57.08c0,35.288,39.48,64,88,64c44.8,0,81.8-24.48,87.24-56H304.8c5.44,31.52,42.448,56,87.24,56    c48.52,0,88-28.712,88-64C480,391.684,461.352,369.764,432,358.948z M376,232.02c0-8.837,7.163-16,16-16s16,7.163,16,16v8    c0,8.837-7.163,16-16,16s-16-7.163-16-16V232.02z M336,296.02c0-13.255,10.745-24,24-24h64c13.255,0,24,10.745,24,24v40h-16v-48    h-16v48h-48v-48h-16v48h-16V296.02z M384,368.02v40h-25.048l7.704-11.56c0.874-1.316,1.341-2.86,1.344-4.44v-40h48v40    c0.003,1.58,0.47,3.124,1.344,4.44l7.704,11.56H400v-40H384z M224,32.02c0-8.837,7.163-16,16-16s16,7.163,16,16v8    c0,8.837-7.163,16-16,16s-16-7.163-16-16V32.02z M184,136.02v-40c0-13.255,10.745-24,24-24h64c13.255,0,24,10.745,24,24v40h-16    v-48h-16v48h-48v-48h-16v48H184z M232,168.02v40h-25.048l7.704-11.56c0.874-1.316,1.341-2.86,1.344-4.44v-40h48v40    c0.003,1.58,0.47,3.124,1.344,4.44l7.704,11.56H248v-40H232z M200,176.268v13.352l-14.656,21.984    c-2.439,3.684-1.429,8.648,2.255,11.087c1.305,0.864,2.836,1.326,4.401,1.329h96c4.418,0.001,8.001-3.581,8.001-7.999    c0-1.581-0.468-3.126-1.345-4.441L280,189.62v-13.344c19.712,8.872,32,23.744,32,39.744c0,26.472-32.304,48-72,48    s-72-21.528-72-48C168,200.02,180.288,185.148,200,176.268z M72,232.02c0-8.837,7.163-16,16-16s16,7.163,16,16v8    c0,8.837-7.163,16-16,16s-16-7.163-16-16V232.02z M32,336.02v-40c0-13.255,10.745-24,24-24h64c13.255,0,24,10.745,24,24v40h-16    v-48h-16v48H64v-48H48v48H32z M80,368.02v40H54.952l7.704-11.56c0.874-1.316,1.341-2.86,1.344-4.44v-40h48v40    c0.003,1.58,0.47,3.124,1.344,4.44l7.704,11.56H96v-40H80z M88,464.02c-39.696,0-72-21.528-72-48c0-16,12.288-30.872,32-39.752    v13.352l-14.656,21.96c-2.452,3.675-1.461,8.643,2.215,11.095c1.315,0.877,2.86,1.345,4.441,1.345h96    c4.418,0.001,8.001-3.581,8.001-7.999c0-1.581-0.468-3.126-1.345-4.441L128,389.62v-13.344c19.712,8.872,32,23.744,32,39.744    C160,442.492,127.696,464.02,88,464.02z M304.728,408.02H175.272c-3.6-21.064-21.184-39.456-47.272-49.072v-6.928h24    c4.418,0,8-3.582,8-8v-48c-0.017-7.552-2.194-14.941-6.272-21.296l21.12-15.84c18.732,14.153,41.679,21.597,65.152,21.136    c23.473,0.461,46.42-6.983,65.152-21.136l21.12,15.84c-4.078,6.355-6.255,13.745-6.272,21.296v48c0,4.418,3.582,8,8,8h24v6.92    C325.912,368.564,308.328,386.964,304.728,408.02z M392,464.02c-39.696,0-72-21.528-72-48c0-16,12.288-30.872,32-39.752v13.352    l-14.656,21.984c-2.439,3.684-1.429,8.648,2.255,11.087c1.305,0.864,2.836,1.326,4.401,1.329h96    c4.418,0.001,8.001-3.581,8.001-7.999c0-1.581-0.468-3.126-1.345-4.441L432,389.62v-13.344c19.712,8.872,32,23.744,32,39.744    C464,442.492,431.696,464.02,392,464.02z" fill="#2a9bc9"/>
	</g>
</g>
<g>
</g>
<g>
</g>
<g>
</g>
<g>
</g>
<g>
</g>
<g>
</g>
<g>
</g>
<g>
</g>
<g>
</g>
<g>
</g>
<g>
</g>
<g>
</g>
<g>
</g>
<g>
</g>
<g>
</g>
</svg>
